<?xml version="1.0" encoding="utf-8"?>
<!-- Generator: Adobe Illustrator 16.0.4, SVG Export Plug-In . SVG Version: 6.00 Build 0)  -->
<!DOCTYPE svg PUBLIC "-//W3C//DTD SVG 1.1//EN" "http://www.w3.org/Graphics/SVG/1.1/DTD/svg11.dtd">
<svg version="1.1" id="Layer_1" xmlns="http://www.w3.org/2000/svg" xmlns:xlink="http://www.w3.org/1999/xlink" x="0px" y="0px"
	 width="50px" height="50px" viewBox="0 0 50 50" enable-background="new 0 0 50 50" xml:space="preserve">
<path d="M25,6.625C14.854,6.625,6.625,14.852,6.625,25c0,10.148,8.229,18.375,18.375,18.375c10.15,0,18.375-8.227,18.375-18.375
	C43.375,14.852,35.15,6.625,25,6.625z M24.959,11.782l0.004-3.275h0.002c4.421,0,8.546,1.701,11.656,4.787l-4.613,4.649
	c-1.864-1.851-4.338-2.875-6.963-2.887h-0.086V11.782z M8.508,25.028V25c0-4.39,1.703-8.521,4.799-11.632l4.643,4.619
	c-1.865,1.875-2.893,4.366-2.893,7.013L8.508,25.028z M25.164,41.494H25c-4.395,0-8.531-1.709-11.645-4.812l4.625-4.64
	c1.859,1.854,4.324,2.882,6.947,2.901h0.086v3.275l0.312,3.258L25.164,41.494z M25,33.051c-4.444,0-8.051-3.605-8.051-8.051
	c0-4.447,3.605-8.051,8.051-8.051c4.447,0,8.051,3.605,8.051,8.051C33.051,29.447,29.447,33.051,25,33.051z M36.67,36.657
	l-4.633-4.63c1.875-1.877,2.905-4.372,2.905-7.026l6.552-0.055v0.055C41.494,29.402,39.781,33.542,36.67,36.657z"/>
</svg>
