<?xml version="1.0" encoding="utf-8"?>
<!-- Generator: Adobe Illustrator 16.0.4, SVG Export Plug-In . SVG Version: 6.00 Build 0)  -->
<!DOCTYPE svg PUBLIC "-//W3C//DTD SVG 1.1//EN" "http://www.w3.org/Graphics/SVG/1.1/DTD/svg11.dtd">
<svg version="1.1" id="Capa_1" xmlns="http://www.w3.org/2000/svg" xmlns:xlink="http://www.w3.org/1999/xlink" x="0px" y="0px"
	 width="64px" height="64px" viewBox="0 0 64 64" enable-background="new 0 0 64 64" xml:space="preserve">
<path d="M32.863,37.505L15.008,19.65l0.082-1.15l15.357,14.703L15.178,17.255l0.301-4.264l19.917,21.979L32.863,37.505z
	 M37.812,33.969l-6.364,6.364l0.707,0.707l6.364-6.364L37.812,33.969z M47.594,49.643l-0.472,0.473
	c-0.847,0.846-2.218,0.846-3.063,0l-0.473-0.473c-0.041-0.041-0.07-0.086-0.105-0.129l-0.013,0.012l-9.192-9.192l3.537-3.536
	l9.191,9.192l-0.012,0.012c0.043,0.037,0.09,0.065,0.13,0.106l0.472,0.472C48.439,47.425,48.439,48.797,47.594,49.643z
	 M38.227,39.449c-0.359-0.358-0.939-0.358-1.297,0c-0.359,0.357-0.359,0.939,0,1.297c0.357,0.357,0.938,0.357,1.297,0
	C38.583,40.389,38.583,39.807,38.227,39.449z M41.055,42.277c-0.359-0.358-0.939-0.358-1.298,0c-0.358,0.357-0.358,0.938,0,1.297
	c0.358,0.357,0.938,0.357,1.298,0C41.412,43.217,41.412,42.636,41.055,42.277z M43.883,45.107c-0.359-0.358-0.939-0.358-1.297,0
	c-0.357,0.357-0.357,0.938,0,1.297c0.264,0.264,0.65,0.33,0.979,0.203c0.009-0.008,0.014-0.019,0.022-0.027l0.472-0.473
	c0.01-0.008,0.02-0.014,0.028-0.022C44.213,45.757,44.146,45.371,43.883,45.107z"/>
</svg>
