<?xml version="1.0" encoding="utf-8"?>
<!-- Generator: Adobe Illustrator 15.0.2, SVG Export Plug-In . SVG Version: 6.00 Build 0)  -->
<!DOCTYPE svg PUBLIC "-//W3C//DTD SVG 1.1//EN" "http://www.w3.org/Graphics/SVG/1.1/DTD/svg11.dtd">
<svg version="1.1" id="Capa_1" xmlns="http://www.w3.org/2000/svg" xmlns:xlink="http://www.w3.org/1999/xlink" x="0px" y="0px"
	 width="800px" height="800px" viewBox="0 0 800 800" enable-background="new 0 0 800 800" xml:space="preserve">
<g>
	<path fill="#007DA3" d="M737.948,43.992C713.372,19.416,680.692,5.88,645.932,5.88c-34.76,0-67.436,13.536-92.012,38.108
		c-12.468,12.472-22.068,27.256-28.568,44.004c-20.607-12.58-44.016-19.168-68.088-19.168c-34.479,0-66.899,13.428-91.283,37.816
		c-50.704,50.704-50.736,133.188-0.093,183.936l32.464,33.912c0.072,0.076,0.068,0.3-0.004,0.372l-357.996,358
		c-9.356,9.355-9.356,24.58,0,33.939l66.56,66.561c4.532,4.531,10.56,7.027,16.968,7.027c6.412,0,12.44-2.496,16.972-7.031
		l24.792-24.792c9.356-9.36,9.356-24.589,0-33.944l-24.792-24.792l24.792-24.796l24.792,24.796
		c4.532,4.532,10.56,7.028,16.972,7.028c6.412,0,12.436-2.496,16.968-7.028l24.796-24.796c9.356-9.36,9.356-24.584,0-33.94
		L224.38,616.3l22.972-22.976l23.236,23.235c4.532,4.532,10.56,7.032,16.972,7.032c6.412,0,12.44-2.5,16.972-7.032l24.792-24.792
		c9.355-9.359,9.355-24.584,0-33.943l-23.236-23.236l150.996-151l0.372-0.004l33.92,32.473c24.563,24.512,57.2,38.012,91.916,38.012
		c34.76,0,67.436-13.532,92.016-38.112c42.145-42.144,49.708-108.56,18.645-159.368c16.815-6.548,31.563-16.132,44.004-28.572
		C788.684,177.28,788.684,94.724,737.948,43.992z M491.276,231.932c-8.86,8.856-20.677,13.736-33.28,13.736
		c-12.6,0-24.42-4.88-33.28-13.74c-18.348-18.348-18.348-48.208,0-66.56c8.86-8.86,20.676-13.736,33.28-13.736
		c12.604,0,24.42,4.876,33.28,13.736C509.624,183.724,509.624,213.58,491.276,231.932z M692.952,136.004
		c0,12.6-4.88,24.42-13.736,33.276c-8.859,8.86-20.676,13.74-33.28,13.74c-12.6,0-24.42-4.88-33.279-13.736
		c-8.86-8.86-13.736-20.676-13.736-33.28s4.88-24.42,13.736-33.276c8.859-8.86,20.676-13.74,33.279-13.74
		c12.604,0,24.421,4.88,33.28,13.74C688.072,111.584,692.952,123.404,692.952,136.004z M630.304,323.944
		c0,12.6-4.88,24.42-13.735,33.276c-8.86,8.86-20.677,13.74-33.28,13.74c-12.604,0-24.42-4.88-33.28-13.74
		c-8.859-8.86-13.74-20.676-13.74-33.28c0-12.6,4.881-24.416,13.736-33.276c8.86-8.86,20.676-13.74,33.28-13.74
		c12.6,0,24.42,4.88,33.28,13.74C625.428,299.524,630.304,311.344,630.304,323.944z"/>
</g>
</svg>
