<?xml version="1.0" encoding="utf-8"?>
<!-- Generator: Adobe Illustrator 15.0.2, SVG Export Plug-In . SVG Version: 6.00 Build 0)  -->
<!DOCTYPE svg PUBLIC "-//W3C//DTD SVG 1.1//EN" "http://www.w3.org/Graphics/SVG/1.1/DTD/svg11.dtd">
<svg version="1.1" id="Capa_1" xmlns="http://www.w3.org/2000/svg" xmlns:xlink="http://www.w3.org/1999/xlink" x="0px" y="0px"
	 width="42.859px" height="42.861px" viewBox="0 0 42.859 42.861" enable-background="new 0 0 42.859 42.861" xml:space="preserve">
<path fill="#FFAE00" d="M39.399,29.132c-3.349-3.348-8.346-3.836-11.521-1.254l-6.188-6.19L42.86,0.513l-1.985,0.705L20.617,20.616
	L0,0l0.704,1.987l18.834,19.665l-5.795,5.55c-3.178-2.396-8.034-1.858-11.305,1.415l4.233,4.234L0,39.526l2.821,2.824l6.675-6.674
	l4.234,4.234c3.348-3.347,3.837-8.349,1.253-11.521l5.625-5.622l6.077,6.352c-2.391,3.179-1.856,8.032,1.421,11.308l4.233-4.237
	l6.672,6.673l2.824-2.821l-6.674-6.675L39.399,29.132z"/>
</svg>
