<?xml version="1.0" encoding="utf-8"?>
<!-- Generator: Adobe Illustrator 15.0.2, SVG Export Plug-In . SVG Version: 6.00 Build 0)  -->
<!DOCTYPE svg PUBLIC "-//W3C//DTD SVG 1.1//EN" "http://www.w3.org/Graphics/SVG/1.1/DTD/svg11.dtd">
<svg version="1.1" id="Layer_1" xmlns="http://www.w3.org/2000/svg" xmlns:xlink="http://www.w3.org/1999/xlink" x="0px" y="0px"
	 width="32px" height="32px" viewBox="-11.567 0 32 32" enable-background="new -11.567 0 32 32" xml:space="preserve">
<g>
	<path fill="#D90E15" d="M7.304,11.212c-0.77,1.983,0.396,5.286,0.993,5.284c0.6,0.002,2.801-0.269,3.26-2.582
		c0.461-2.313-1.451-4.068-0.017-6.889C10.754,6.706,8.072,9.229,7.304,11.212z"/>
	<path fill="#D90E15" d="M15.626,14.631l0.082-0.382l0.013-0.048l0.003-0.025l0.012-0.08l0.004-0.016l0.012-0.133l0.016-0.265
		c0.024-0.704-0.144-1.403-0.399-1.94c-0.238-0.554-0.532-1.019-0.794-1.421c-0.268-0.411-0.511-0.769-0.692-1.109
		c-0.044-0.085-0.09-0.169-0.138-0.253c-0.034-0.083-0.066-0.163-0.103-0.242c-0.087-0.163-0.104-0.319-0.158-0.478
		c-0.053-0.156-0.047-0.312-0.078-0.464c-0.022-0.154-0.003-0.304-0.007-0.451c0.016-0.284,0.07-0.535,0.106-0.766
		c0.144-0.45,0.203-0.72,0.203-0.72s-0.22,0.171-0.564,0.494c-0.145,0.186-0.369,0.43-0.526,0.756
		c-0.072,0.163-0.168,0.337-0.233,0.538c-0.048,0.203-0.114,0.423-0.138,0.658c-0.039,0.464-0.01,0.998,0.134,1.491
		c0.125,0.505,0.326,0.988,0.523,1.441c0.207,0.459,0.399,0.886,0.538,1.289c0.147,0.407,0.207,0.76,0.188,1.098l-0.005,0.124v0.065
		l-0.002,0.007l-0.002,0.017l-0.07,0.385c-0.073,0.199-0.073,0.3-0.169,0.492c-0.063,0.176-0.165,0.331-0.25,0.496
		c-0.111,0.149-0.217,0.306-0.352,0.441c-0.505,0.565-1.218,0.972-1.88,1.255c-0.335,0.133-0.661,0.249-0.957,0.34
		c-0.299,0.077-0.563,0.157-0.791,0.201c-0.462,0.102-0.723,0.158-0.723,0.158s0.062,0.025,0.18,0.078
		c0.118,0.041,0.295,0.136,0.526,0.19c0.231,0.072,0.52,0.147,0.858,0.191c0.337,0.044,0.732,0.076,1.162,0.05
		c0.433-0.031,0.912-0.094,1.402-0.265c0.497-0.153,1.012-0.414,1.486-0.784c0.48-0.363,0.916-0.866,1.209-1.455
		C15.412,15.332,15.542,14.926,15.626,14.631z"/>
	<path fill="#D90E15" d="M5.615,14.837c0.171,0.38,0.373,0.689,0.536,0.937c0.17,0.247,0.335,0.421,0.453,0.527
		c0.12,0.106,0.198,0.145,0.198,0.145s-0.05-0.071-0.106-0.211c-0.062-0.139-0.123-0.353-0.187-0.624
		c-0.125-0.545-0.237-1.335-0.248-2.27c-0.014-0.927,0.068-2.001,0.365-3.045c0.066-0.258,0.161-0.526,0.259-0.766l0.072-0.172
		l0.096-0.215c0.05-0.107,0.104-0.194,0.165-0.29c0.242-0.367,0.621-0.7,1.076-1.025c0.464-0.315,0.986-0.622,1.534-0.924
		c0.548-0.304,1.105-0.617,1.643-0.955c0.535-0.338,1.047-0.704,1.507-1.097c0.453-0.396,0.856-0.815,1.176-1.244
		c0.317-0.428,0.558-0.855,0.731-1.249c0.17-0.393,0.274-0.743,0.336-1.04c0.07-0.299,0.09-0.527,0.1-0.685
		c0.009-0.157,0.015-0.242,0.015-0.242s-0.05,0.069-0.139,0.199c-0.079,0.134-0.219,0.323-0.381,0.544
		c-0.172,0.224-0.392,0.482-0.646,0.756c-0.27,0.266-0.579,0.545-0.938,0.819c-0.716,0.546-1.638,1.041-2.699,1.536
		C10.001,4.503,9.436,4.755,8.85,5.046C8.265,5.338,7.651,5.663,7.052,6.099c-0.593,0.43-1.191,1.001-1.588,1.748
		C5.37,8.031,5.282,8.232,5.212,8.417L5.137,8.642L5.055,8.916c-0.094,0.355-0.163,0.69-0.209,1.03
		c-0.179,1.351-0.006,2.586,0.278,3.577C5.258,14.021,5.444,14.458,5.615,14.837z"/>
	<path fill="#D90E15" d="M-5.817,28.611c-0.368,0.023-0.727,0.168-1.006,0.447c-0.61,0.609-0.609,1.598,0,2.206
		c0.609,0.61,1.597,0.61,2.207,0c0.279-0.278,0.424-0.639,0.447-1.006L-5.817,28.611z"/>
	<path fill="#D90E15" d="M2.983,16.404l0.012,0.012l0.064,0.234c0.629,1.813-5.202,8.484-8.329,11.788l1.275,1.274
		c3.356-3.158,9.938-8.947,11.723-8.328l0.354,0.118l1.22-1.222l-5.098-5.099L2.983,16.404z"/>
</g>
</svg>
